<svg width="30" height="30" fill="none" xmlns="http://www.w3.org/2000/svg"><path d="m21.75 16.803-5.25 3.5v5.393l9.295-6.196-4.045-2.697ZM19.045 15 15 12.303 10.954 15 15 17.697 19.045 15ZM27 13.303 24.454 15 27 16.697v-3.393ZM25.795 10.5 16.5 4.304v5.394l5.25 3.499 4.045-2.697ZM8.25 13.197l5.25-3.5V4.305L4.204 10.5l4.046 2.697ZM4.204 19.5l9.296 6.196v-5.394l-5.25-3.499L4.204 19.5ZM3 16.697 5.545 15 3 13.303v3.393ZM0 10.5a1.5 1.5 0 0 1 .667-1.248l13.5-9a1.5 1.5 0 0 1 1.665 0l13.5 9A1.5 1.5 0 0 1 30 10.5v9a1.5 1.5 0 0 1-.668 1.248l-13.5 9a1.5 1.5 0 0 1-1.665 0l-13.5-9A1.5 1.5 0 0 1 0 19.5v-9Z" fill="#000"/></svg>