<svg width="26" height="30" fill="none" xmlns="http://www.w3.org/2000/svg"><path d="M4.534 24.69c-.446-.305-.83-.695-1.28-1.246a76.687 76.687 0 0 1-.694-.885c-.69-.879-1.124-1.284-1.574-1.45a1.504 1.504 0 0 1-.844-.787 1.566 1.566 0 0 1-.054-1.17c.133-.38.409-.692.766-.865a1.454 1.454 0 0 1 1.139-.056c1.12.412 1.877 1.123 2.899 2.427-.14-.18.506.652.644.823.283.347.492.558.655.67.304.21.874.3 1.713.214.034-.584.14-1.151.3-1.674-4.419-1.11-6.92-4.035-6.92-9.775 0-1.895.55-3.601 1.575-5.031-.324-1.367-.275-3.019.45-4.879.082-.21.209-.4.371-.553a1.48 1.48 0 0 1 .567-.337c.12-.036.189-.053.31-.071C5.752-.143 7.44.305 9.64 1.72a17.037 17.037 0 0 1 4.001-.471c1.358 0 2.707.159 3.996.47 2.2-1.425 3.89-1.873 5.095-1.674.127.02.234.046.325.076.207.07.396.186.554.339.159.153.283.34.363.548.725 1.858.774 3.51.45 4.875C25.454 7.313 26 9.008 26 10.916c0 5.742-2.492 8.658-6.912 9.77a7.5 7.5 0 0 1 .283 2.108c0 1.384-.005 2.768-.017 4.151.334.075.633.266.846.54a1.555 1.555 0 0 1-.018 1.93c-.218.27-.521.455-.857.523-1.696.348-2.952-.813-2.952-2.331l.003-.682.007-1.077c.008-1.082.01-2.045.01-3.054 0-1.065-.272-1.76-.632-2.078-.984-.872-.486-2.53.804-2.678 4.417-.509 6.457-2.265 6.457-7.122 0-1.46-.464-2.666-1.36-3.674a1.566 1.566 0 0 1-.283-1.597c.248-.633.354-1.463.144-2.467l-.015.004c-.731.213-1.653.673-2.767 1.45a1.467 1.467 0 0 1-1.24.207 13.986 13.986 0 0 0-3.859-.533c-1.325 0-2.638.182-3.86.535a1.452 1.452 0 0 1-1.235-.205C7.427 3.86 6.5 3.402 5.766 3.188c-.215.999-.11 1.825.137 2.457a1.566 1.566 0 0 1-.282 1.597c-.889 1-1.36 2.228-1.36 3.674 0 4.848 2.042 6.615 6.436 7.122 1.288.148 1.788 1.799.81 2.672-.286.256-.639 1.118-.639 2.084v4.815c0 1.506-1.243 2.636-2.918 2.335a1.48 1.48 0 0 1-.873-.51 1.555 1.555 0 0 1-.039-1.941c.214-.28.515-.472.852-.548v-1.513c-1.355.093-2.474-.134-3.356-.741Z" fill="#000"/></svg>