<svg width="36" height="30" fill="none" xmlns="http://www.w3.org/2000/svg"><path d="M24.955 3.607a5.193 5.193 0 0 0-3.647 1.496 5.237 5.237 0 0 0-1.557 3.634l-.05 2.839a1.087 1.087 0 0 1-.376.8 1.075 1.075 0 0 1-.845.25l-2.802-.382C11.992 11.74 8.46 10.034 5.072 7.2c-1.073 5.965 1.023 10.098 6.071 13.285l3.136 1.98a1.078 1.078 0 0 1 .503.878 1.085 1.085 0 0 1-.442.91l-2.857 2.097c1.7.106 3.313.03 4.651-.237 8.468-1.697 14.098-8.095 14.098-18.648 0-.861-1.816-3.858-5.277-3.858ZM16.161 8.67a8.855 8.855 0 0 1 1.555-4.857A8.801 8.801 0 0 1 21.688.632a8.76 8.76 0 0 1 5.06-.446 8.783 8.783 0 0 1 4.463 2.438c1.276-.009 2.362.316 4.79-1.162-.601 2.956-.897 4.239-2.179 6.003 0 13.772-8.43 20.469-16.983 22.183C10.973 30.823 2.444 28.892 0 26.33c1.246-.097 6.307-.644 9.232-2.793-2.475-1.639-12.326-7.46-5.853-23.11 3.039 3.563 6.12 5.99 9.243 7.276 2.078.856 2.588.838 3.541.97l-.002-.002Z" fill="#000"/></svg>