<svg width="30" height="30" viewBox="0 0 30 30" fill="none" xmlns="http://www.w3.org/2000/svg">
<path d="M21.7497 16.803L16.4998 20.3024V25.6963L25.7951 19.4999L21.7497 16.803ZM19.0452 15L14.9998 12.303L10.9543 15L14.9998 17.697L19.0452 15ZM26.9996 13.3035L24.4541 15L26.9996 16.6965V13.3035ZM25.7951 10.5001L16.4998 4.30366V9.69758L21.7497 13.197L25.7951 10.5001ZM8.24988 13.197L13.4998 9.69758V4.30366L4.20444 10.5001L8.24988 13.197ZM4.20444 19.4999L13.4998 25.6963V20.3024L8.24988 16.803L4.20444 19.4999ZM2.99996 16.6965L5.54542 15L2.99996 13.3035V16.6965ZM1.67989e-08 10.5001C-3.69284e-05 10.2532 0.0608659 10.0101 0.177305 9.79241C0.293744 9.5747 0.462119 9.38911 0.66749 9.25209L14.1673 0.252221C14.4138 0.0877646 14.7035 0 14.9998 0C15.2961 0 15.5858 0.0877646 15.8323 0.252221L29.3321 9.25209C29.5374 9.38911 29.7058 9.5747 29.8222 9.79241C29.9387 10.0101 29.9996 10.2532 29.9996 10.5001V19.4999C29.9996 19.7468 29.9387 19.9899 29.8222 20.2076C29.7058 20.4253 29.5374 20.6109 29.3321 20.7479L15.8323 29.7478C15.5858 29.9122 15.2961 30 14.9998 30C14.7035 30 14.4138 29.9122 14.1673 29.7478L0.66749 20.7479C0.462119 20.6109 0.293744 20.4253 0.177305 20.2076C0.0608659 19.9899 -3.69284e-05 19.7468 1.67989e-08 19.4999V10.5001Z" fill="black"/>
</svg>
