<svg width="26" height="30" viewBox="0 0 26 30" fill="none" xmlns="http://www.w3.org/2000/svg">
<path d="M4.53426 24.6909C4.08758 24.3853 3.70344 23.9955 3.25378 23.4438C3.02039 23.1506 2.7891 22.8556 2.55995 22.5589C1.87058 21.6801 1.43581 21.2751 0.986161 21.1085C0.614376 20.9715 0.310839 20.6885 0.142326 20.3217C-0.026187 19.955 -0.0458731 19.5346 0.0875984 19.1529C0.22107 18.7713 0.496766 18.4597 0.854036 18.2868C1.21131 18.1138 1.62089 18.0936 1.99267 18.2306C3.11234 18.6432 3.8702 19.3539 4.8916 20.6576C4.75164 20.4788 5.39783 21.3102 5.5363 21.4814C5.81919 21.8283 6.02764 22.0392 6.19142 22.1508C6.49516 22.3602 7.06542 22.4504 7.90368 22.3648C7.93792 21.7809 8.04364 21.2139 8.20444 20.6912C3.78533 19.5816 1.28394 16.6564 1.28394 10.9159C1.28394 9.0207 1.83484 7.31505 2.85922 5.88451C2.53464 4.51816 2.58377 2.86601 3.30887 1.006C3.39116 0.795594 3.51803 0.606622 3.68026 0.452774C3.8425 0.298926 4.03606 0.184057 4.24689 0.116492C4.3675 0.0798112 4.43599 0.0629994 4.55659 0.0446591C5.75219 -0.143329 7.44063 0.30448 9.64125 1.71974C10.9527 1.40502 12.2952 1.24706 13.642 1.249C14.9999 1.249 16.3488 1.40795 17.6382 1.71974C19.8374 0.293781 21.5288 -0.154027 22.7333 0.0446591C22.8599 0.0645278 22.9671 0.0905097 23.0579 0.121077C23.2646 0.19104 23.4538 0.306671 23.6123 0.459826C23.7708 0.612981 23.8946 0.799936 23.9751 1.00752C24.7002 2.86601 24.7493 4.51816 24.4247 5.88298C25.4536 7.31352 26 9.00847 26 10.9159C26 16.6579 23.5076 19.574 19.0884 20.6851C19.2746 21.3194 19.3713 22.0285 19.3713 22.7942C19.3715 24.1779 19.3655 25.5616 19.3535 26.9453C19.6878 27.0201 19.9869 27.211 20.2003 27.4856C20.4136 27.7603 20.5283 28.102 20.525 28.4533C20.5217 28.8046 20.4005 29.144 20.182 29.4144C19.9635 29.6847 19.6609 29.8696 19.3252 29.9378C17.6293 30.2863 16.3727 29.1247 16.3727 27.607L16.3756 26.9254L16.3831 25.8479C16.3905 24.7658 16.3935 23.803 16.3935 22.7942C16.3935 21.729 16.121 21.0336 15.7607 20.7157C14.7765 19.8445 15.2753 18.1863 16.5647 18.038C20.9823 17.5291 23.0222 15.773 23.0222 10.9159C23.0222 9.45628 22.5576 8.25041 21.6628 7.24169C21.4742 7.02962 21.3477 6.76733 21.2977 6.48486C21.2477 6.2024 21.2761 5.91118 21.3799 5.64456C21.627 5.01182 21.7328 4.18192 21.5228 3.17779L21.5079 3.18237C20.7769 3.39482 19.8552 3.85485 18.7415 4.63279C18.5619 4.75789 18.3579 4.84118 18.1436 4.87682C17.9294 4.91246 17.7101 4.89959 17.5013 4.83911C16.2445 4.48192 14.946 4.30246 13.642 4.30572C12.3168 4.30572 11.0036 4.48759 9.78269 4.84064C9.57457 4.90064 9.35622 4.9134 9.14281 4.87803C8.9294 4.84267 8.72605 4.76002 8.54689 4.63584C7.42723 3.86097 6.50112 3.40246 5.76559 3.18849C5.55119 4.18651 5.6569 5.01335 5.90257 5.64456C6.00651 5.91104 6.03524 6.20218 5.98547 6.48464C5.9357 6.7671 5.80945 7.02946 5.62117 7.24169C4.73228 8.24124 4.26178 9.47003 4.26178 10.9159C4.26178 15.7638 6.30309 17.5306 10.6969 18.038C11.9848 18.1863 12.4851 19.8369 11.5069 20.7096C11.221 20.9663 10.8681 21.8283 10.8681 22.7942V27.6086C10.8681 29.1155 9.62487 30.245 7.94984 29.9439C7.61001 29.8827 7.30146 29.7022 7.07691 29.4333C6.85236 29.1644 6.72574 28.8238 6.71871 28.4697C6.71168 28.1156 6.82466 27.77 7.03835 27.492C7.25204 27.2139 7.55317 27.0207 7.89028 26.9453V25.4322C6.53536 25.5254 5.4157 25.2977 4.53426 24.6909Z" fill="black"/>
</svg>
