<svg width="30" height="30" viewBox="0 0 30 30" fill="none" xmlns="http://www.w3.org/2000/svg">
<path d="M15 27C18.1826 27 21.2348 25.7357 23.4853 23.4853C25.7357 21.2348 27 18.1826 27 15C27 11.8174 25.7357 8.76515 23.4853 6.51472C21.2348 4.26428 18.1826 3 15 3C11.8174 3 8.76515 4.26428 6.51472 6.51472C4.26428 8.76515 3 11.8174 3 15C3 18.1826 4.26428 21.2348 6.51472 23.4853C8.76515 25.7357 11.8174 27 15 27ZM15 30C6.7155 30 0 23.2845 0 15C0 6.7155 6.7155 0 15 0C23.2845 0 30 6.7155 30 15C30 23.2845 23.2845 30 15 30ZM10.335 16.755L6.588 15.5865C5.778 15.339 5.7735 14.781 6.7695 14.3805L21.369 8.7405C22.2165 8.3955 22.6965 8.832 22.422 9.9255L19.9365 21.6555C19.7625 22.491 19.26 22.6905 18.5625 22.305L14.736 19.473L12.9525 21.195C12.7695 21.372 12.621 21.5235 12.339 21.561C12.0585 21.6 11.8275 21.516 11.658 21.051L10.353 16.7445L10.335 16.755Z" fill="black"/>
</svg>
