<svg width="36" height="30" viewBox="0 0 36 30" fill="none" xmlns="http://www.w3.org/2000/svg">
<path d="M24.9554 3.6066C23.5913 3.60637 22.2817 4.14386 21.3084 5.1034C20.335 6.06294 19.7757 7.36784 19.7507 8.7373L19.7005 11.5757C19.6975 11.7281 19.6625 11.8781 19.5978 12.016C19.533 12.1538 19.44 12.2764 19.3247 12.3756C19.2095 12.4748 19.0747 12.5484 18.9291 12.5916C18.7835 12.6349 18.6305 12.6467 18.4801 12.6263L15.6785 12.2443C11.9922 11.7397 8.46024 10.0348 5.07184 7.20007C3.9986 13.1652 6.09482 17.2975 11.1433 20.4855L14.2787 22.4642C14.4277 22.5582 14.5514 22.6874 14.6391 22.8406C14.7269 22.9937 14.7759 23.1661 14.7819 23.3427C14.7879 23.5193 14.7508 23.6947 14.6737 23.8535C14.5966 24.0123 14.4819 24.1497 14.3397 24.2537L11.4825 26.3496C13.1821 26.4559 14.7956 26.3803 16.1344 26.1135C24.6018 24.4159 30.2318 18.0183 30.2318 7.46498C30.2318 6.60356 28.4156 3.6066 24.9554 3.6066ZM16.1613 8.67062C16.1926 6.93344 16.7336 5.24415 17.7165 3.81425C18.6995 2.38434 20.0806 1.27737 21.6871 0.631927C23.2935 -0.0135149 25.0539 -0.168742 26.7478 0.185681C28.4417 0.540104 29.9939 1.38843 31.2099 2.62443C32.486 2.61542 33.5718 2.93981 36 1.46205C35.3988 4.41756 35.1026 5.70069 33.8212 7.46498C33.8212 21.2369 25.3915 27.9337 16.8379 29.6475C10.9728 30.8225 2.44439 28.8924 0 26.3298C1.24553 26.2325 6.3066 25.6864 9.23197 23.5365C6.75707 21.8983 -3.09407 16.0774 3.37943 0.427624C6.41787 3.99046 9.49938 6.41614 12.6222 7.70287C14.7004 8.55888 15.2101 8.54086 16.1631 8.67242L16.1613 8.67062Z" fill="black"/>
</svg>
