<svg width="20" height="20" viewBox="0 0 20 20" fill="none" xmlns="http://www.w3.org/2000/svg">
<path d="M7.77778 3.33333V5.55556H2.22222V17.7778H14.4444V12.2222H16.6667V18.8889C16.6667 19.1836 16.5496 19.4662 16.3412 19.6746C16.1329 19.8829 15.8502 20 15.5556 20H1.11111C0.816426 20 0.533811 19.8829 0.325437 19.6746C0.117063 19.4662 0 19.1836 0 18.8889V4.44444C0 4.14976 0.117063 3.86714 0.325437 3.65877C0.533811 3.4504 0.816426 3.33333 1.11111 3.33333H7.77778ZM20 0V8.88889H17.7778V3.79222L9.11889 12.4522L7.54778 10.8811L16.2056 2.22222H11.1111V0H20Z" fill="white"/>
</svg>
